ffmpeg version 3.4.8-0ubuntu0.2 Copyright (c) 2000-2020 the FFmpeg developers
  built with gcc 7 (Ubuntu 7.5.0-3ubuntu1~18.04)
  configuration: --prefix=/usr --extra-version=0ubuntu0.2 --toolchain=hardened --libdir=/usr/lib/x86_64-linux-gnu --incdir=/usr/include/x86_64-linux-gnu --enable-gpl --disable-stripping --enable-avresample --enable-avisynth --enable-gnutls --enable-ladspa --enable-libass --enable-libbluray --enable-libbs2b --enable-libcaca --enable-libcdio --enable-libflite --enable-libfontconfig --enable-libfreetype --enable-libfribidi --enable-libgme --enable-libgsm --enable-libmp3lame --enable-libmysofa --enable-libopenjpeg --enable-libopenmpt --enable-libopus --enable-libpulse --enable-librubberband --enable-librsvg --enable-libshine --enable-libsnappy --enable-libsoxr --enable-libspeex --enable-libssh --enable-libtheora --enable-libtwolame --enable-libvorbis --enable-libvpx --enable-libwavpack --enable-libwebp --enable-libx265 --enable-libxml2 --enable-libxvid --enable-libzmq --enable-libzvbi --enable-omx --enable-openal --enable-opengl --enable-sdl2 --enable-libdc1394 --enable-libdrm --enable-libiec61883 --enable-chromaprint --enable-frei0r --enable-libopencv --enable-libx264 --enable-shared
  libavutil      55. 78.100 / 55. 78.100
  libavcodec     57.107.100 / 57.107.100
  libavformat    57. 83.100 / 57. 83.100
  libavdevice    57. 10.100 / 57. 10.100
  libavfilter     6.107.100 /  6.107.100
  libavresample   3.  7.  0 /  3.  7.  0
  libswscale      4.  8.100 /  4.  8.100
  libswresample   2.  9.100 /  2.  9.100
  libpostproc    54.  7.100 / 54.  7.100
[rawvideo @ 0x5595795e6a20] Estimating duration from bitrate, this may be inaccurate
Input #0, rawvideo, from '../../SVC-Encoder-20220109T061506Z-001/SVC-Encoder/Dataset/RollerCoaster/6f_2x2/tile_yuv/f3_t2_480x480.yuv':
  Duration: 00:00:10.00, start: 0.000000, bitrate: 82944 kb/s
    Stream #0:0: Video: rawvideo (I420 / 0x30323449), yuv420p, 480x480, 82944 kb/s, 30 tbr, 30 tbn, 30 tbc
Stream mapping:
  Stream #0:0 -> #0:0 (rawvideo (native) -> h264 (libx264))
Press [q] to stop, [?] for help
[libx264 @ 0x5595795f3c60] using cpu capabilities: MMX2 SSE2Fast LZCNT SSSE3 SSE4.2 AVX
[libx264 @ 0x5595795f3c60] profile High, level 3.0
Output #0, rawvideo, to 'RollerCoaster_f3_t2_480x480_x264_QP_20.h264':
  Metadata:
    encoder         : Lavf57.83.100
    Stream #0:0: Video: h264 (libx264), yuv420p, 480x480, q=-1--1, 30 fps, 30 tbn, 30 tbc
    Metadata:
      encoder         : Lavc57.107.100 libx264
    Side data:
      cpb: bitrate max/min/avg: 0/0/0 buffer size: 0 vbv_delay: -1
frame=  112 fps=0.0 q=26.0 PSNR=Y:nan U:nan V:nan *:nan size=     143kB time=00:00:02.30 bitrate= 511.1kbits/s speed=4.52x    frame=  183 fps=180 q=26.0 PSNR=Y:nan U:nan V:nan *:nan size=     256kB time=00:00:04.66 bitrate= 449.4kbits/s speed=4.59x    frame=  264 fps=174 q=26.0 PSNR=Y:nan U:nan V:nan *:nan size=     256kB time=00:00:07.36 bitrate= 284.7kbits/s speed=4.86x    frame=  300 fps=155 q=26.0 LPSNR=Y:inf U:inf V:inf *:inf size=     537kB time=00:00:09.93 bitrate= 442.7kbits/s speed=5.12x    
video:537kB audio:0kB subtitle:0kB other streams:0kB global headers:0kB muxing overhead: 0.000000%
[libx264 @ 0x5595795f3c60] frame I:2     Avg QP:17.98  size: 33420  PSNR Mean Y:48.47 U:50.15 V:49.04 Avg:48.80 Global:48.75
[libx264 @ 0x5595795f3c60] frame P:77    Avg QP:19.49  size:  4792  PSNR Mean Y:46.42 U:49.23 V:47.90 Avg:47.01 Global:46.97
[libx264 @ 0x5595795f3c60] frame B:221   Avg QP:25.45  size:   515  PSNR Mean Y:45.45 U:49.14 V:47.76 Avg:46.22 Global:46.19
[libx264 @ 0x5595795f3c60] consecutive B-frames:  0.7%  2.7%  2.0% 94.7%
[libx264 @ 0x5595795f3c60] mb I  I16..4: 21.4% 47.8% 30.8%
[libx264 @ 0x5595795f3c60] mb P  I16..4:  1.8%  0.9%  0.0%  P16..4: 33.0% 16.3% 13.0%  0.0%  0.0%    skip:34.9%
[libx264 @ 0x5595795f3c60] mb B  I16..4:  0.0%  0.0%  0.0%  B16..8: 24.0%  4.1%  0.4%  direct: 0.5%  skip:71.0%  L0:41.4% L1:49.1% BI: 9.5%
[libx264 @ 0x5595795f3c60] 8x8 transform intra:40.7% inter:58.1%
[libx264 @ 0x5595795f3c60] coded y,uvDC,uvAC intra: 40.7% 63.8% 31.8% inter: 8.4% 9.2% 0.4%
[libx264 @ 0x5595795f3c60] i16 v,h,dc,p: 34% 37% 14% 15%
[libx264 @ 0x5595795f3c60] i8 v,h,dc,ddl,ddr,vr,hd,vl,hu: 16% 23% 31%  5%  3%  4%  5%  6%  8%
[libx264 @ 0x5595795f3c60] i4 v,h,dc,ddl,ddr,vr,hd,vl,hu: 19% 23% 11%  8%  6%  6%  7%  9% 10%
[libx264 @ 0x5595795f3c60] i8c dc,h,v,p: 32% 34% 20% 14%
[libx264 @ 0x5595795f3c60] Weighted P-Frames: Y:2.6% UV:0.0%
[libx264 @ 0x5595795f3c60] ref P L0: 58.5%  9.8% 23.0%  8.5%  0.1%
[libx264 @ 0x5595795f3c60] ref B L0: 68.2% 25.0%  6.8%
[libx264 @ 0x5595795f3c60] ref B L1: 80.4% 19.6%
[libx264 @ 0x5595795f3c60] PSNR Mean Y:45.717 U:49.167 V:47.804 Avg:46.440 Global:46.394 kb/s:439.73
